<svg id="レイヤー_1" data-name="レイヤー 1" xmlns="http://www.w3.org/2000/svg" viewBox="0 0 162 101"><defs><style>.cls-1,.cls-2{fill:#fff;stroke:#707070;stroke-miterlimit:10;}.cls-1{stroke-width:3px;}.cls-2{stroke-width:2.8px;}.cls-3{fill:#707070;}</style></defs><title>content_width</title><rect class="cls-1" x="1.5" y="1.5" width="159" height="98" rx="7.55"/><polygon class="cls-2" points="11 23 11 92 82.39 92 73.25 76.38 76.06 44.37 58.73 23 11 23"/><polygon class="cls-2" points="152 23 76.86 23 75.73 23 93.01 44.23 90.5 76.07 99.39 92 152 92 152 23"/><rect class="cls-3" x="18.7" y="10" width="124.78" height="5"/><polygon class="cls-3" points="20.52 18.73 9.73 12.5 20.52 6.27 20.52 18.73"/><polygon class="cls-3" points="142.48 18.73 153.27 12.5 142.48 6.27 142.48 18.73"/><polygon class="cls-2" points="148 92 117 33 93.5 80.69 99 92 148 92"/><polygon class="cls-2" points="73.95 66.9 56 45 17 92 82 92 73 76 73.95 66.9"/></svg>