<svg id="レイヤー_1" data-name="レイヤー 1" xmlns="http://www.w3.org/2000/svg" viewBox="0 0 162 101"><defs><style>.cls-1,.cls-2,.cls-4{fill:#fff;stroke:#707070;stroke-miterlimit:10;}.cls-1{stroke-width:3px;}.cls-2{stroke-width:2.92px;}.cls-3{fill:#707070;}.cls-4{stroke-width:2.78px;}</style></defs><title>content_height</title><rect class="cls-1" x="1.5" y="1.5" width="159" height="98" rx="7.55"/><polygon class="cls-2" points="138 9 11 9 11 28.35 49 42 116 33 138 46.16 138 9"/><polygon class="cls-2" points="11 38.35 11 92 138 92 138 56.16 116.11 43.09 49.97 52.41 11 38.35"/><rect class="cls-3" x="146" y="18.1" width="6" height="64.99"/><polygon class="cls-3" points="141.52 20.1 149 7.15 156.48 20.1 141.52 20.1"/><polygon class="cls-3" points="141.52 80.9 149 93.85 156.48 80.9 141.52 80.9"/><polygon class="cls-4" points="80.71 47.85 70.44 62.47 59 51 49 52 45 51 16.5 92 133.5 92 109 44 80.71 47.85"/><polygon class="cls-4" points="97.82 23.5 89 36 104 34 97.82 23.5"/></svg>