<svg id="レイヤー_1" data-name="レイヤー 1" xmlns="http://www.w3.org/2000/svg" viewBox="0 0 160 107"><defs><style>.cls-1{fill:#fff;}.cls-2{fill:#707070;}</style></defs><title>canvas_width</title><rect class="cls-1" width="160" height="107" rx="8.26"/><path class="cls-2" d="M151.74,3A5.27,5.27,0,0,1,157,8.26V98.74a5.27,5.27,0,0,1-5.26,5.26H8.26A5.27,5.27,0,0,1,3,98.74V8.26A5.27,5.27,0,0,1,8.26,3H151.74m0-3H8.26A8.26,8.26,0,0,0,0,8.26V98.74A8.26,8.26,0,0,0,8.26,107H151.74A8.26,8.26,0,0,0,160,98.74V8.26A8.26,8.26,0,0,0,151.74,0Z"/><rect class="cls-2" x="13.22" y="51" width="133.56" height="5"/><polygon class="cls-2" points="15.04 59.73 4.25 53.5 15.04 47.27 15.04 59.73"/><polygon class="cls-2" points="144.96 59.73 155.75 53.5 144.96 47.27 144.96 59.73"/></svg>