<svg xmlns="http://www.w3.org/2000/svg" width="33.353" height="12.318" viewBox="0 0 33.353 12.318">
  <g id="done-icon" transform="translate(-1697.06 -295.864)">
    <path id="Path_12" data-name="Path 12" d="M-16.44,0V-12.136h3.6a7.5,7.5,0,0,1,1.859.187,3.107,3.107,0,0,1,1.22.618,2.937,2.937,0,0,1,.892,1.316,6.77,6.77,0,0,1,.261,2.1v3.7a9.049,9.049,0,0,1-.087,1.424,3.878,3.878,0,0,1-.328,1.025A2.659,2.659,0,0,1-10.351-.415,6.062,6.062,0,0,1-12.837,0Zm2.4-1.917h1.021a1.967,1.967,0,0,0,1.61-.523A3.625,3.625,0,0,0-11-4.507V-7.628A3.658,3.658,0,0,0-11.418-9.7a1.943,1.943,0,0,0-1.6-.515h-1.021Zm7.155-1.66v-1.66a4.473,4.473,0,0,1,.664-2.731A3.324,3.324,0,0,1-3.457-9a3.162,3.162,0,0,1,2.9,1.22,4.826,4.826,0,0,1,.531,2.54v1.66A4.433,4.433,0,0,1-.693-.855,3.31,3.31,0,0,1-3.457.183a3.174,3.174,0,0,1-2.9-1.22A4.853,4.853,0,0,1-6.885-3.578Zm4.59-.008V-5.229a3.14,3.14,0,0,0-.257-1.507.969.969,0,0,0-.9-.427.953.953,0,0,0-1,.606,3.9,3.9,0,0,0-.166,1.328v1.644a3.1,3.1,0,0,0,.261,1.5.967.967,0,0,0,.9.432.953.953,0,0,0,1-.606A3.9,3.9,0,0,0-2.3-3.586ZM1.7,0V-8.815H3.391l.174.7A2.393,2.393,0,0,1,4.437-8.8a3.06,3.06,0,0,1,1.2-.2A2.419,2.419,0,0,1,8.139-7.521,6.481,6.481,0,0,1,8.4-5.346V0H6.13V-5.055A4.6,4.6,0,0,0,6-6.35a.887.887,0,0,0-.913-.706.9.9,0,0,0-.876.465,3.915,3.915,0,0,0-.245,1.66V0Zm10.65-3.835V-3.4a2.36,2.36,0,0,0,.3,1.357,1.131,1.131,0,0,0,.984.419,1.292,1.292,0,0,0,.834-.245,1.532,1.532,0,0,0,.461-.793l1.917.423a3.353,3.353,0,0,1-.739,1.6,3.5,3.5,0,0,1-2.623.822,3.073,3.073,0,0,1-2.88-1.32,5.546,5.546,0,0,1-.531-2.739v-.971a5.291,5.291,0,0,1,.664-3.013A3.166,3.166,0,0,1,13.5-9,3.039,3.039,0,0,1,16.39-7.653a5.827,5.827,0,0,1,.523,2.806v1.013Zm-.008-1.594h2.416v-.266a1.958,1.958,0,0,0-.295-1.2,1.086,1.086,0,0,0-.917-.382,1.074,1.074,0,0,0-.913.382,2,2,0,0,0-.291,1.2Z" transform="translate(1713.5 308)" fill="#fff"/>
  </g>
</svg>
