<svg xmlns="http://www.w3.org/2000/svg" width="29" height="23" viewBox="0 0 29 23">
  <g id="keyframe-icon" transform="translate(-1716 -553)">
    <g id="Rectangle_8" data-name="Rectangle 8" transform="translate(1716 553)" fill="none" stroke="#707070" stroke-linecap="round" stroke-linejoin="round" stroke-width="2">
      <rect width="29" height="23" stroke="none"/>
      <rect x="1" y="1" width="27" height="21" fill="none"/>
    </g>
    <path id="Subtraction_1" data-name="Subtraction 1" d="M-77.674-146.174a6.508,6.508,0,0,1-6.5-6.5,6.508,6.508,0,0,1,6.5-6.5,6.507,6.507,0,0,1,6.5,6.5A6.508,6.508,0,0,1-77.674-146.174Zm-4-7a.5.5,0,0,0-.5.5.5.5,0,0,0,.5.5h3.5v3.5a.5.5,0,0,0,.5.5.5.5,0,0,0,.5-.5v-3.5h3.5a.5.5,0,0,0,.5-.5.5.5,0,0,0-.5-.5h-3.5v-3.5a.5.5,0,0,0-.5-.5.5.5,0,0,0-.5.5v3.5Z" transform="translate(1808.175 717.175)" fill="#707070"/>
  </g>
</svg>
