<svg xmlns="http://www.w3.org/2000/svg" width="40" height="38.184" viewBox="0 0 40 38.184">
  <g id="nonlinear" transform="translate(-1635 -469)">
    <g id="Path_2" data-name="Path 2" transform="translate(1635 469)" fill="none">
      <path d="M20,0C31.046,0,40,12.088,40,27S0,41.912,0,27,8.954,0,20,0Z" stroke="none"/>
      <path d="M 20 3.000003814697266 C 15.63229942321777 3.000003814697266 11.46599006652832 5.377243041992188 8.268529891967773 9.693801879882812 C 6.631458282470703 11.90384292602539 5.341499328613281 14.49232292175293 4.434478759765625 17.38731384277344 C 3.482631683349609 20.42539215087891 3 23.65957260131836 3 27.00000381469727 C 3 28.11833190917969 3.353771209716797 29.11413192749023 4.081520080566406 30.04430389404297 C 4.859260559082031 31.03836250305176 6.038108825683594 31.93234252929688 7.585311889648438 32.70138168334961 C 10.75917053222656 34.27897262573242 15.28414916992188 35.18376159667969 20 35.18376159667969 C 24.71585083007812 35.18376159667969 29.24082946777344 34.27897262573242 32.41468811035156 32.70138168334961 C 33.96189117431641 31.93234252929688 35.14073944091797 31.03836250305176 35.91847991943359 30.04430389404297 C 36.6462287902832 29.11413192749023 37 28.11833190917969 37 27.00000381469727 C 37 23.65957260131836 36.51736831665039 20.42539215087891 35.56552124023438 17.38731384277344 C 34.65850067138672 14.49232292175293 33.36853790283203 11.90384292602539 31.73147010803223 9.693801879882812 C 28.53400993347168 5.377243041992188 24.36769866943359 3.000003814697266 20 3.000003814697266 M 20 3.814697265625e-06 C 31.04570007324219 3.814697265625e-06 40 12.08831214904785 40 27.00000381469727 C 40 34.45584106445312 30 38.18376159667969 20 38.18376159667969 C 10 38.18376159667969 0 34.45584106445312 0 27.00000381469727 C 0 12.08831214904785 8.954299926757812 3.814697265625e-06 20 3.814697265625e-06 Z" stroke="none" fill="#707070"/>
    </g>
    <path id="Path_3" data-name="Path 3" d="M1637.113,488.5c9.3,4.969,23.849,6.9,35.759,0" transform="translate(0 3)" fill="none" stroke="#707070" stroke-width="2"/>
    <path id="Path_4" data-name="Path 4" d="M1637.113,488.5c7.934,3.923,20.336,5.45,30.492,0" transform="translate(2.647 -5)" fill="none" stroke="#707070" stroke-width="2"/>
    <path id="Path_5" data-name="Path 5" d="M1637.113,488.5c6.458,3.265,16.553,4.535,24.819,0" transform="translate(5.344 -13)" fill="none" stroke="#707070" stroke-width="2"/>
  </g>
</svg>
